<?xml version="1.0" encoding="utf-8"?>
<!-- Generator: Adobe Illustrator 21.0.0, SVG Export Plug-In . SVG Version: 6.00 Build 0)  -->
<svg version="1.1" id="Capa_1" xmlns="http://www.w3.org/2000/svg" xmlns:xlink="http://www.w3.org/1999/xlink" x="0px" y="0px"
	 viewBox="0 0 800 800" style="enable-background:new 0 0 800 800;" xml:space="preserve">
<style type="text/css">
	.st0{fill:#5060A2;stroke:#5060A2;stroke-miterlimit:10;}
	.st1{fill:#FFFFFF;}
	.st2{fill:none;stroke:#FFFFFF;stroke-width:8;stroke-miterlimit:10;}
</style>
<g>
	<path class="st0" d="M676.1,326.5c-6.8-26.8-17.5-52.4-31.6-76.1l-3.5-5.9l32.9-65.7l-58-58l-65.7,32.8l-5.9-3.5
		c-23.7-14.1-49.3-24.8-76.1-31.6l-6.6-1.7l-23.2-69.6h-82L333.1,117l-6.6,1.7c-26.8,6.8-52.4,17.4-76.1,31.6l-5.9,3.5l-65.7-32.8
		l-58,58l32.9,65.7l-3.5,5.9c-14.1,23.7-24.8,49.3-31.6,76.1l-1.7,6.6l-69.6,23.2v82l69.6,23.2l1.7,6.6
		c6.8,26.8,17.4,52.4,31.6,76.1l3.5,5.9l-32.9,65.7l58,58l65.7-32.8l5.9,3.5c23.7,14.1,49.3,24.8,76.1,31.6l6.6,1.7l23.2,69.6h82
		l23.2-69.6l6.6-1.7c26.8-6.8,52.4-17.5,76.1-31.6l5.9-3.5l65.7,32.8l58-58L641,550.1l3.5-5.9c14.1-23.7,24.8-49.3,31.6-76.1
		l1.6-6.6l69.6-23.2v-82l-69.6-23.2L676.1,326.5z"/>
</g>
<path class="st1" d="M267,333.3h-53c-6.6,0-12-5.4-12-12v-53c0-6.6,5.4-12,12-12h53c6.6,0,12,5.4,12,12v53
	C279,327.9,273.6,333.3,267,333.3z"/>
<path class="st1" d="M269,433.3h-53c-6.6,0-12-5.4-12-12v-53c0-6.6,5.4-12,12-12h53c6.6,0,12,5.4,12,12v53
	C281,427.9,275.6,433.3,269,433.3z"/>
<path class="st1" d="M268,538.3h-53c-6.6,0-12-5.4-12-12v-53c0-6.6,5.4-12,12-12h53c6.6,0,12,5.4,12,12v53
	C280,532.9,274.6,538.3,268,538.3z"/>
<path class="st1" d="M432,440.3h-65c-6.6,0-12-5.4-12-12v-65c0-6.6,5.4-12,12-12h65c6.6,0,12,5.4,12,12v65
	C444,434.9,438.6,440.3,432,440.3z"/>
<path class="st1" d="M605,433.3h-46c-6.6,0-12-5.4-12-12v-46c0-6.6,5.4-12,12-12h46c6.6,0,12,5.4,12,12v46
	C617,427.9,611.6,433.3,605,433.3z"/>
<line class="st2" x1="267" y1="320.3" x2="374" y2="368.3"/>
<line class="st2" x1="255" y1="398.3" x2="391" y2="399.3"/>
<line class="st2" x1="268" y1="499.3" x2="384" y2="416.3"/>
<line class="st2" x1="427" y1="395.3" x2="568" y2="395.3"/>
</svg>
