<?xml version="1.0" encoding="utf-8"?>
<!-- Generator: Adobe Illustrator 21.0.0, SVG Export Plug-In . SVG Version: 6.00 Build 0)  -->
<svg version="1.1" id="Capa_1" xmlns="http://www.w3.org/2000/svg" xmlns:xlink="http://www.w3.org/1999/xlink" x="0px" y="0px"
	 viewBox="0 0 24 24" style="enable-background:new 0 0 24 24;" xml:space="preserve">
<style type="text/css">
	.st0{fill:#C9D5EC;stroke:#346B99;stroke-width:0.75;stroke-miterlimit:10;}
	.st1{fill:#5467C6;stroke:#5467C6;stroke-width:0.25;stroke-miterlimit:10;}
	.st2{fill:none;stroke:#FFFFFF;stroke-width:0.25;stroke-miterlimit:10;}
</style>
<g>
	<g>
		<path class="st0" d="M21.2,9.7c-0.2-0.9-0.6-1.8-1-2.5L20.1,7l1-2.2l-1.9-2l-2.2,1l-0.2-0.1c-0.8-0.5-1.7-0.8-2.5-1h-0.3l-0.7-2.3
			h-2.7L9.8,2.7L9.6,2.9c-0.9,0.2-1.8,0.5-2.5,1L6.9,4L4.8,2.9l-2,2L3.9,7L3.8,7.2C3.3,7.9,3,8.9,2.8,9.7L2.7,9.9l-2.3,0.7v2.7
			l2.3,0.8l0.1,0.2c0.2,0.9,0.6,1.8,1,2.5l0.1,0.2l-1.1,2.3l2,1.9l2.2-1l0.2,0.1c0.8,0.5,1.7,0.8,2.5,1l0.2,0.1l0.7,2.3h2.7l0.8-2.3
			l0.2-0.1c0.9-0.2,1.8-0.6,2.5-1l0.2-0.1l2.2,1l2-2l-1-2.2l0.1-0.2c0.5-0.8,0.8-1.7,1-2.5l0.1-0.2l2.3-0.7v-2.7L21.3,10L21.2,9.7z"
			/>
	</g>
	<path class="st1" d="M17.2,14.8h-1.7c-0.2,0-0.4-0.2-0.4-0.4v-1.6c0-0.2,0.2-0.4,0.4-0.4h1.7c0.2,0,0.4,0.2,0.4,0.4v1.7
		C17.6,14.7,17.4,14.8,17.2,14.8z"/>
	<path class="st1" d="M8.3,9.3H6.6c-0.2,0-0.4-0.2-0.4-0.4V7.2c0-0.2,0.2-0.4,0.4-0.4h1.7c0.2,0,0.4,0.2,0.4,0.4v1.7
		C8.6,9.2,8.5,9.3,8.3,9.3z"/>
	<path class="st1" d="M8.4,16.9H6.7c-0.2,0-0.4-0.2-0.4-0.4v-1.7c0-0.2,0.2-0.4,0.4-0.4h1.7c0.2,0,0.4,0.2,0.4,0.4v1.7
		C8.8,16.7,8.6,16.9,8.4,16.9z"/>
	<path class="st1" d="M12.7,13.9h-2.1c-0.2,0-0.4-0.2-0.4-0.4v-2.1c0-0.2,0.2-0.4,0.4-0.4h2.1c0.2,0,0.4,0.2,0.4,0.4v2.1
		C13.1,13.7,12.9,13.9,12.7,13.9z"/>
	<line class="st1" x1="15.9" y1="13.5" x2="11.8" y2="12.3"/>
	<line class="st1" x1="7.4" y1="8.5" x2="11.1" y2="11.9"/>
	<line class="st1" x1="7.7" y1="15.9" x2="11.2" y2="13.5"/>
	<path class="st2" d="M17.1,12.4"/>
	<path class="st2" d="M12.6,12.4"/>
</g>
</svg>
